<svg xmlns="http://www.w3.org/2000/svg" xmlns:xlink="http://www.w3.org/1999/xlink" version="1.1" data-diagram-type="DESCRIPTION" style="width:638px;height:724px;background:#FFFFFF;" width="638px" height="724px" viewBox="0 0 638 724" zoomAndPan="magnify" preserveAspectRatio="none" contentStyleType="text/css"><?plantuml 1.2026.8?><defs/><g font-family="sans-serif" lengthAdjust="spacing"><g class="title" data-source-line="1"><text x="245.5" y="24.84" fill="#000" font-size="14" textLength="140" font-weight="700" font-family="PingFang SC">数据备份系统用例总览</text></g><!--cluster Data Backup 数据备份系统--><g class="cluster" data-qualified-name="Data Backup ......" id="ent0006" data-source-line="20"><rect x="223" y="231.21" width="315" height="349" fill="none" style="stroke:#64748B;stroke-width:1;" rx="2.5" ry="2.5"/><text x="293.336" y="248.05" fill="#000" font-size="14" textLength="174.328" font-weight="700" font-family="PingFang SC">Data Backup 数据备份系统</text></g><!--entity USR--><g class="entity" data-qualified-name="USR" id="ent0001" data-source-line="15"><ellipse cx="175" cy="531.71" rx="8" ry="8" fill="#F1F1F1" style="stroke:#334155;stroke-width:0.5;"/><path d="M175,539.71 L175,566.71 M162,547.71 L188,547.71 M175,566.71 L162,581.71 M175,566.71 L188,581.71" style="stroke:#334155;stroke-width:0.5;" fill="none"/><text x="147" y="598.05" fill="#000" font-size="14" textLength="56" font-family="PingFang SC">桌面用户</text></g><!--entity AUT--><g class="entity" data-qualified-name="AUT" id="ent0002" data-source-line="16"><ellipse cx="58.5" cy="531.71" rx="8" ry="8" fill="#F1F1F1" style="stroke:#334155;stroke-width:0.5;"/><path d="M58.5,539.71 L58.5,566.71 M45.5,547.71 L71.5,547.71 M58.5,566.71 L45.5,581.71 M58.5,566.71 L71.5,581.71" style="stroke:#334155;stroke-width:0.5;" fill="none"/><text x="6" y="598.05" fill="#000" font-size="14" textLength="105" font-family="PingFang SC">高级/自动化用户</text></g><!--entity OS--><g class="entity" data-qualified-name="OS" id="ent0003" data-source-line="17"><ellipse cx="305" cy="143.81" rx="8" ry="8" fill="#F1F1F1" style="stroke:#334155;stroke-width:0.5;"/><path d="M305,151.81 L305,178.81 M292,159.81 L318,159.81 M305,178.81 L292,193.81 M305,178.81 L318,193.81" style="stroke:#334155;stroke-width:0.5;" fill="none"/><text x="256" y="210.15" fill="#000" font-size="14" textLength="98" font-family="PingFang SC">操作系统调度器</text><text x="274.193" y="130.55" fill="#000" font-size="14" textLength="61.614" font-style="italic" font-family="PingFang SC">«system»</text></g><!--entity SRC--><g class="entity" data-qualified-name="SRC" id="ent0004" data-source-line="18"><ellipse cx="464.5" cy="143.81" rx="8" ry="8" fill="#F1F1F1" style="stroke:#334155;stroke-width:0.5;"/><path d="M464.5,151.81 L464.5,178.81 M451.5,159.81 L477.5,159.81 M464.5,178.81 L451.5,193.81 M464.5,178.81 L477.5,193.81" style="stroke:#334155;stroke-width:0.5;" fill="none"/><text x="429.5" y="210.15" fill="#000" font-size="14" textLength="70" font-family="PingFang SC">源文件系统</text><text x="433.693" y="130.55" fill="#000" font-size="14" textLength="61.614" font-style="italic" font-family="PingFang SC">«system»</text></g><!--entity TGT--><g class="entity" data-qualified-name="TGT" id="ent0005" data-source-line="19"><ellipse cx="589.807" cy="360.81" rx="8" ry="8" fill="#F1F1F1" style="stroke:#334155;stroke-width:0.5;"/><path d="M589.807,368.81 L589.807,395.81 M576.807,376.81 L602.807,376.81 M589.807,395.81 L576.807,410.81 M589.807,395.81 L602.807,410.81" style="stroke:#334155;stroke-width:0.5;" fill="none"/><text x="561.807" y="427.15" fill="#000" font-size="14" textLength="56" font-family="PingFang SC">备份存储</text><text x="559" y="347.55" fill="#000" font-size="14" textLength="61.614" font-style="italic" font-family="PingFang SC">«system»</text></g><!--entity UC_01--><g class="entity" data-qualified-name="Data Backup .......UC_01" id="ent0007" data-source-line="21"><ellipse cx="305.169" cy="459.989" rx="57.169" ry="28.279" fill="#EFF6FF" style="stroke:#2563EB;stroke-width:0.5;"/><text x="283.833" y="452.853" fill="#000" font-size="14" textLength="42.672" font-family="PingFang SC">UC-01</text><text x="263.169" y="472.453" fill="#000" font-size="14" textLength="84" font-family="PingFang SC">管理备份任务</text></g><!--entity UC_02--><g class="entity" data-qualified-name="Data Backup .......UC_02" id="ent0008" data-source-line="22"><ellipse cx="304.947" cy="384.273" rx="40.947" ry="29.563" fill="#EFF6FF" style="stroke:#2563EB;stroke-width:0.5;"/><text x="282.218" y="379.102" fill="#000" font-size="14" textLength="45.458" font-family="PingFang SC">UC-02</text><text x="276.947" y="398.702" fill="#000" font-size="14" textLength="56" font-family="PingFang SC">执行备份</text></g><!--entity UC_03--><g class="entity" data-qualified-name="Data Backup .......UC_03" id="ent0009" data-source-line="23"><ellipse cx="304.867" cy="535.356" rx="65.867" ry="28.147" fill="#EFF6FF" style="stroke:#2563EB;stroke-width:0.5;"/><text x="282.138" y="528.011" fill="#000" font-size="14" textLength="45.458" font-family="PingFang SC">UC-03</text><text x="255.867" y="547.611" fill="#000" font-size="14" textLength="98" font-family="PingFang SC">查看状态与历史</text></g><!--entity UC_04--><g class="entity" data-qualified-name="Data Backup .......UC_04" id="ent0010" data-source-line="24"><ellipse cx="304.947" cy="307.273" rx="40.947" ry="29.563" fill="#EFF6FF" style="stroke:#2563EB;stroke-width:0.5;"/><text x="282.218" y="302.102" fill="#000" font-size="14" textLength="45.458" font-family="PingFang SC">UC-04</text><text x="276.947" y="321.702" fill="#000" font-size="14" textLength="56" font-family="PingFang SC">校验备份</text></g><!--entity UC_05--><g class="entity" data-qualified-name="Data Backup .......UC_05" id="ent0011" data-source-line="25"><ellipse cx="464.447" cy="459.273" rx="40.947" ry="29.563" fill="#EFF6FF" style="stroke:#2563EB;stroke-width:0.5;"/><text x="441.718" y="454.102" fill="#000" font-size="14" textLength="45.458" font-family="PingFang SC">UC-05</text><text x="436.447" y="473.702" fill="#000" font-size="14" textLength="56" font-family="PingFang SC">浏览快照</text></g><!--entity UC_06--><g class="entity" data-qualified-name="Data Backup .......UC_06" id="ent0012" data-source-line="26"><ellipse cx="464.447" cy="382.273" rx="40.947" ry="29.563" fill="#EFF6FF" style="stroke:#2563EB;stroke-width:0.5;"/><text x="441.718" y="377.102" fill="#000" font-size="14" textLength="45.458" font-family="PingFang SC">UC-06</text><text x="436.447" y="396.702" fill="#000" font-size="14" textLength="56" font-family="PingFang SC">恢复数据</text></g><!--entity UC_07--><g class="entity" data-qualified-name="Data Backup .......UC_07" id="ent0013" data-source-line="27"><ellipse cx="464.337" cy="535.067" rx="57.337" ry="28.357" fill="#EFF6FF" style="stroke:#2563EB;stroke-width:0.5;"/><text x="441.979" y="528.056" fill="#000" font-size="14" textLength="44.716" font-family="PingFang SC">UC-07</text><text x="422.337" y="547.656" fill="#000" font-size="14" textLength="84" font-family="PingFang SC">管理保留策略</text></g><!--entity UC_08--><g class="entity" data-qualified-name="Data Backup .......UC_08" id="ent0014" data-source-line="28"><ellipse cx="464.401" cy="306.097" rx="57.401" ry="28.387" fill="#EFF6FF" style="stroke:#2563EB;stroke-width:0.5;"/><text x="441.672" y="299.132" fill="#000" font-size="14" textLength="45.458" font-family="PingFang SC">UC-08</text><text x="422.401" y="318.732" fill="#000" font-size="14" textLength="84" font-family="PingFang SC">导出诊断信息</text></g><g class="link" data-entity-1="ent0001" data-entity-2="ent0007" id="lnk25" data-link-type="association"><path d="M200.184,523.023 C206.808,514.103 214.527,505.227 223,498.21 C230.417,492.067 238.993,486.671 247.73,482.02" style="stroke:#475569;stroke-width:1;" fill="none"/></g><g class="link" data-entity-1="ent0001" data-entity-2="ent0008" id="lnk26" data-link-type="association"><path d="M180.915,523.11 C186.51,492.582 198.319,451.182 223,423.21 C233.739,411.038 249.121,402.32 263.601,396.257" style="stroke:#475569;stroke-width:1;" fill="none"/></g><g class="link" data-entity-1="ent0001" data-entity-2="ent0009" id="lnk27" data-link-type="association"><path d="M203.146,557.272 C213.713,554.96 226.314,552.203 238.969,549.435" style="stroke:#475569;stroke-width:1;" fill="none"/></g><g class="link" data-entity-1="ent0001" data-entity-2="ent0010" id="lnk28" data-link-type="association"><path d="M180.458,523.016 C187.252,468.068 201.699,373.225 223,346.21 C233.244,333.218 248.891,324.299 263.712,318.307" style="stroke:#475569;stroke-width:1;" fill="none"/></g><g class="link" data-entity-1="ent0001" data-entity-2="ent0011" id="lnk29" data-link-type="association"><path d="M189.62,603.423 C196.978,618.69 207.761,634.488 223,643.21 C280.089,675.882 319.186,683.732 371,643.21 C423.304,602.303 369.234,552.825 407,498.21 C411.406,491.837 417.218,486.187 423.436,481.302" style="stroke:#475569;stroke-width:1;" fill="none"/></g><g class="link" data-entity-1="ent0001" data-entity-2="ent0012" id="lnk30" data-link-type="association"><path d="M203.046,593.18 C209.087,598.1 215.844,602.478 223,605.21 C284.453,628.667 320.219,647.018 371,605.21 C435.331,552.246 361.34,490.914 407,421.21 C411.311,414.629 417.154,408.85 423.453,403.895" style="stroke:#475569;stroke-width:1;" fill="none"/></g><g class="link" data-entity-1="ent0001" data-entity-2="ent0013" id="lnk31" data-link-type="association"><path d="M180.466,603.265 C185.788,630.217 197.449,663.883 223,681.21 C277.441,718.126 313.37,712.92 371,681.21 C416.349,656.257 442.582,598.641 454.871,563.711" style="stroke:#475569;stroke-width:1;" fill="none"/></g><g class="link" data-entity-1="ent0001" data-entity-2="ent0014" id="lnk32" data-link-type="association"><path d="M203.024,574.816 C244.464,590.588 323.85,612.499 371,572.21 C448.993,505.565 351.842,430.708 407,344.21 C409.161,340.821 411.745,337.662 414.6,334.732" style="stroke:#475569;stroke-width:1;" fill="none"/></g><g class="link" data-entity-1="ent0003" data-entity-2="ent0008" id="lnk33" data-link-type="association"><path d="M255.731,189.977 C238.644,201.436 221.619,216.858 213,236.21 C203.869,256.713 203.869,316.707 213,337.21 C221.975,357.362 243.564,369 263.574,375.652" style="stroke:#475569;stroke-width:1;" fill="none"/></g><g class="link" data-entity-1="ent0007" data-entity-2="ent0004" id="lnk34" data-link-type="association"><path d="M362.098,433.115 C365.42,430.105 368.444,426.809 371,423.21 C422.279,350.996 367.654,306.558 407,227.21 C412.628,215.859 420.957,205.062 429.5,195.754" style="stroke:#475569;stroke-width:1;" fill="none"/></g><g class="link" data-entity-1="ent0008" data-entity-2="ent0004" id="lnk35" data-link-type="association"><path d="M346.066,367.073 C355.308,361.55 364.363,354.626 371,346.21 C405.216,302.822 379.717,275.261 407,227.21 C413.04,216.572 421.199,206.24 429.437,197.158" style="stroke:#475569;stroke-width:1;" fill="none"/></g><g class="link" data-entity-1="ent0008" data-entity-2="ent0005" id="lnk36" data-link-type="association"><path d="M346.259,368.11 C355.728,362.517 364.843,355.301 371,346.21 C431.486,256.905 325.27,176.594 407,106.21 C451.117,68.216 493.246,68.968 538,106.21 C571.944,134.456 583.388,261.057 587.177,332.582" style="stroke:#475569;stroke-width:1;" fill="none"/></g><g class="link" data-entity-1="ent0010" data-entity-2="ent0005" id="lnk37" data-link-type="association"><path d="M334.034,277.37 C346.966,262.17 361.517,242.793 371,223.21 C399.94,163.447 354.696,119.116 407,78.21 C452.862,42.342 493.555,40.6 538,78.21 C575.788,110.186 585.594,254.705 588.127,332.408" style="stroke:#475569;stroke-width:1;" fill="none"/></g><g class="link" data-entity-1="ent0011" data-entity-2="ent0005" id="lnk38" data-link-type="association"><path d="M505.698,439.691 C516.402,434.077 527.816,427.706 538,421.21 C544.578,417.014 551.372,412.196 557.772,407.411" style="stroke:#475569;stroke-width:1;" fill="none"/></g><g class="link" data-entity-1="ent0012" data-entity-2="ent0005" id="lnk39" data-link-type="association"><path d="M505.597,382.21 C522.501,382.21 541.883,382.21 557.706,382.21" style="stroke:#475569;stroke-width:1;" fill="none"/></g><g class="link" data-entity-1="ent0013" data-entity-2="ent0005" id="lnk40" data-link-type="association"><path d="M522.088,511.393 C527.885,507.526 533.344,503.142 538,498.21 C555.442,479.732 567.526,454.315 575.537,431.982" style="stroke:#475569;stroke-width:1;" fill="none"/></g><g class="link" data-entity-1="ent0002" data-entity-2="ent0001" id="lnk41" data-link-type="extension"><polygon points="146.838,563.21,128.838,557.21,128.838,569.21,146.838,563.21" fill="none" style="stroke:#475569;stroke-width:1;stroke-linejoin:miter;stroke-miterlimit:10;"/><path d="M111.056,563.21 C123.402,563.21 118.105,563.21 128.838,563.21" style="stroke:#475569;stroke-width:1;" fill="none"/></g><?plantuml-src RPHRInj168RlzrSCyNgfPayfYA2fwLqhnbnLATFic2okis5tWeIse2qrDXwXDIWeDgADA1vegIr9hNzc3_5VT9BTB9jrBlTzd--mtymtH2Cw0kxkZRjvvPnKxVQTzxFjjO-yhsVsltLtkTrfhd4wcYU06C3K2aK2LCr4UQ8PcBCMD5o29bm4Rs1-eM0QPQoc3TqmmL9H8oZYMqMe6aiQBe1vg5jHHzSm8fKI0YL3htG_8XusL6IX4f2aY6X2lD0LnLH4LD4yBEiaOs3o0YuYC4LBPI0jbqr7g77JD9Ry1eT4HPBafr4pJmnpmZ1LP0Q888WZ0wLp5if32mr0IKaM9YSOK6mYGvEPZ9p9HC1fEaNQeZwOJnOLCHNDDqKJmGBAaWezABCVmy5kko3XDZOU3e_fQRbhlnC0MY2NdUvx3nTxNglvf5CzTsfdpaOzGetdPi8CNpRjkmF_r3it7vtMTsV_h0Uzp8BHKQjY4RGuDXRYhHstJk_9hH_H0xFJQGRfNoVdSi_vuEURUJuJnS9_0Obda43GdLYvnBYB2V2M0w3ipnKaScb-U6GMUrSDRsVLv-nsswar_FzFlnuUYUF9MUn-RdOQ6puUWiauA53mwDGxMFTgj-xoYlrdozbQTRP_X152F4Aa4TyQ3-Vnr68Sb2ZuQvkkatD_uNrgXg0K1sKAhXmx9vl-949GZeDAVmZs_Q6tk-zTrhtTqn1NudXg5ZlNVvrggtDTS-kNzdt3NRaEyHJ5UxC3_AkYfge8pz6DnNpOOszUB5CEJ85bAe4fian6pTuJmuU7qolETEN7BKLS8N1bfgiyxZZYYe6hCDqKzvwZEqOzR7IVeZa-k78CCUcB0tqnC94bIYnHPeaAIqnnT7lvWMa6amuqkhDSVtvX95EaQylrZ_2HAB54EQpILvGuHXyWmFFlnhhlrNy0?></g></svg>