<svg xmlns="http://www.w3.org/2000/svg" xmlns:xlink="http://www.w3.org/1999/xlink" version="1.1" data-diagram-type="DESCRIPTION" style="width:1459px;height:845px;background:#FFFFFF;" width="1459px" height="845px" viewBox="0 0 1459 845" zoomAndPan="magnify" preserveAspectRatio="none" contentStyleType="text/css"><?plantuml 1.2026.8?><defs/><g font-family="sans-serif" lengthAdjust="spacing"><g class="title" data-source-line="1"><text x="649" y="24.84" fill="#000" font-size="14" textLength="154" font-weight="700" font-family="PingFang SC">备份浏览恢复与维护用例</text></g><!--cluster Data Backup 数据备份系统--><g class="cluster" data-qualified-name="Data Backup ......" id="ent0005" data-source-line="19"><rect x="89" y="285.1" width="1354" height="429" fill="none" style="stroke:#64748B;stroke-width:1;" rx="2.5" ry="2.5"/><text x="678.836" y="301.94" fill="#000" font-size="14" textLength="174.328" font-weight="700" font-family="PingFang SC">Data Backup 数据备份系统</text></g><!--entity USR--><g class="entity" data-qualified-name="USR" id="ent0001" data-source-line="15"><ellipse cx="34" cy="494.6" rx="8" ry="8" fill="#F1F1F1" style="stroke:#334155;stroke-width:0.5;"/><path d="M34,502.6 L34,529.6 M21,510.6 L47,510.6 M34,529.6 L21,544.6 M34,529.6 L47,544.6" style="stroke:#334155;stroke-width:0.5;" fill="none"/><text x="6" y="560.94" fill="#000" font-size="14" textLength="56" font-family="PingFang SC">桌面用户</text></g><!--entity TGT--><g class="entity" data-qualified-name="TGT" id="ent0002" data-source-line="16"><ellipse cx="839.807" cy="80.7" rx="8" ry="8" fill="#F1F1F1" style="stroke:#334155;stroke-width:0.5;"/><path d="M839.807,88.7 L839.807,115.7 M826.807,96.7 L852.807,96.7 M839.807,115.7 L826.807,130.7 M839.807,115.7 L852.807,130.7" style="stroke:#334155;stroke-width:0.5;" fill="none"/><text x="811.807" y="147.04" fill="#000" font-size="14" textLength="56" font-family="PingFang SC">备份存储</text><text x="809" y="67.44" fill="#000" font-size="14" textLength="61.614" font-style="italic" font-family="PingFang SC">«system»</text></g><!--entity LOCAL--><g class="entity" data-qualified-name="LOCAL" id="ent0003" data-source-line="17"><ellipse cx="839.807" cy="197.7" rx="8" ry="8" fill="#F1F1F1" style="stroke:#334155;stroke-width:0.5;"/><path d="M839.807,205.7 L839.807,232.7 M826.807,213.7 L852.807,213.7 M839.807,232.7 L826.807,247.7 M839.807,232.7 L852.807,247.7" style="stroke:#334155;stroke-width:0.5;" fill="none"/><text x="811.807" y="264.04" fill="#000" font-size="14" textLength="56" font-family="PingFang SC">本地存储</text><text x="809" y="184.44" fill="#000" font-size="14" textLength="61.614" font-style="italic" font-family="PingFang SC">«system»</text></g><!--entity REMOTE--><g class="entity" data-qualified-name="REMOTE" id="ent0004" data-source-line="18"><ellipse cx="839.966" cy="758.7" rx="8" ry="8" fill="#F1F1F1" style="stroke:#334155;stroke-width:0.5;"/><path d="M839.966,766.7 L839.966,793.7 M826.966,774.7 L852.966,774.7 M839.966,793.7 L826.966,808.7 M839.966,793.7 L852.966,808.7" style="stroke:#334155;stroke-width:0.5;" fill="none"/><text x="769" y="825.04" fill="#000" font-size="14" textLength="141.932" font-family="PingFang SC">WebDAV/S3 远程存储</text><text x="809.159" y="745.44" fill="#000" font-size="14" textLength="61.614" font-style="italic" font-family="PingFang SC">«system»</text></g><!--entity UC_04--><g class="entity" data-qualified-name="Data Backup .......UC_04" id="ent0006" data-source-line="20"><ellipse cx="145.947" cy="436.163" rx="40.947" ry="29.563" fill="#EFF6FF" style="stroke:#2563EB;stroke-width:0.5;"/><text x="123.218" y="430.992" fill="#000" font-size="14" textLength="45.458" font-family="PingFang SC">UC-04</text><text x="117.947" y="450.592" fill="#000" font-size="14" textLength="56" font-family="PingFang SC">校验备份</text></g><!--entity UC_05--><g class="entity" data-qualified-name="Data Backup .......UC_05" id="ent0007" data-source-line="21"><ellipse cx="264.947" cy="486.163" rx="40.947" ry="29.563" fill="#EFF6FF" style="stroke:#2563EB;stroke-width:0.5;"/><text x="242.218" y="480.992" fill="#000" font-size="14" textLength="45.458" font-family="PingFang SC">UC-05</text><text x="236.947" y="500.592" fill="#000" font-size="14" textLength="56" font-family="PingFang SC">浏览快照</text></g><!--entity UC_06--><g class="entity" data-qualified-name="Data Backup .......UC_06" id="ent0008" data-source-line="22"><ellipse cx="400.947" cy="553.163" rx="40.947" ry="29.563" fill="#EFF6FF" style="stroke:#2563EB;stroke-width:0.5;"/><text x="378.218" y="547.992" fill="#000" font-size="14" textLength="45.458" font-family="PingFang SC">UC-06</text><text x="372.947" y="567.592" fill="#000" font-size="14" textLength="56" font-family="PingFang SC">恢复数据</text></g><!--entity UC_07--><g class="entity" data-qualified-name="Data Backup .......UC_07" id="ent0009" data-source-line="23"><ellipse cx="613.837" cy="552.957" rx="57.337" ry="28.357" fill="#EFF6FF" style="stroke:#2563EB;stroke-width:0.5;"/><text x="591.479" y="545.946" fill="#000" font-size="14" textLength="44.716" font-family="PingFang SC">UC-07</text><text x="571.837" y="565.546" fill="#000" font-size="14" textLength="84" font-family="PingFang SC">管理保留策略</text></g><!--entity UC_14--><g class="entity" data-qualified-name="Data Backup .......UC_14" id="ent0010" data-source-line="24"><ellipse cx="840.169" cy="374.879" rx="57.169" ry="28.279" fill="#EFF6FF" style="stroke:#2563EB;stroke-width:0.5;"/><text x="818.833" y="367.743" fill="#000" font-size="14" textLength="42.672" font-family="PingFang SC">UC-14</text><text x="798.169" y="387.343" fill="#000" font-size="14" textLength="84" font-family="PingFang SC">访问备份仓库</text></g><!--entity UC_14L--><g class="entity" data-qualified-name="Data Backup .......UC_14L" id="ent0011" data-source-line="25"><ellipse cx="400.9" cy="418.22" rx="57.9" ry="28.62" fill="#EFF6FF" style="stroke:#2563EB;stroke-width:0.5;"/><text x="375.448" y="411.62" fill="#000" font-size="14" textLength="50.904" font-family="PingFang SC">UC-14L</text><text x="358.9" y="431.22" fill="#000" font-size="14" textLength="84" font-family="PingFang SC">访问本地仓库</text></g><!--entity UC_14R--><g class="entity" data-qualified-name="Data Backup .......UC_14R" id="ent0012" data-source-line="26"><ellipse cx="614.022" cy="478.277" rx="58.022" ry="28.677" fill="#EFF6FF" style="stroke:#2563EB;stroke-width:0.5;"/><text x="587.954" y="471.765" fill="#000" font-size="14" textLength="52.136" font-family="PingFang SC">UC-14R</text><text x="572.022" y="491.365" fill="#000" font-size="14" textLength="84" font-family="PingFang SC">访问远程仓库</text></g><!--entity UC_15--><g class="entity" data-qualified-name="Data Backup .......UC_15" id="ent0013" data-source-line="27"><ellipse cx="1150.2" cy="455.24" rx="126.2" ry="27.64" fill="#EFF6FF" style="stroke:#2563EB;stroke-width:0.5;"/><text x="1128.864" y="447.072" fill="#000" font-size="14" textLength="42.672" font-family="PingFang SC">UC-15</text><text x="1052.2" y="466.672" fill="#000" font-size="14" textLength="196" font-family="PingFang SC">使用文本密钥文件解锁加密仓库</text></g><!--entity UC_17--><g class="entity" data-qualified-name="Data Backup .......UC_17" id="ent0014" data-source-line="28"><ellipse cx="840.11" cy="600.851" rx="57.11" ry="28.251" fill="#EFF6FF" style="stroke:#2563EB;stroke-width:0.5;"/><text x="819.145" y="593.672" fill="#000" font-size="14" textLength="41.93" font-family="PingFang SC">UC-17</text><text x="798.11" y="613.272" fill="#000" font-size="14" textLength="84" font-family="PingFang SC">处理恢复冲突</text></g><!--entity UC_18--><g class="entity" data-qualified-name="Data Backup .......UC_18" id="ent0015" data-source-line="29"><ellipse cx="1370.169" cy="600.879" rx="57.169" ry="28.279" fill="#EFF6FF" style="stroke:#2563EB;stroke-width:0.5;"/><text x="1348.833" y="593.743" fill="#000" font-size="14" textLength="42.672" font-family="PingFang SC">UC-18</text><text x="1328.169" y="613.343" fill="#000" font-size="14" textLength="84" font-family="PingFang SC">校验恢复结果</text></g><g class="link" data-entity-1="ent0001" data-entity-2="ent0006" id="lnk29" data-link-type="association"><path d="M62.03,503.075 C67.928,498.107 74.155,492.905 80,488.1 C88.931,480.759 98.628,472.928 107.74,465.63" style="stroke:#475569;stroke-width:1;" fill="none"/></g><g class="link" data-entity-1="ent0001" data-entity-2="ent0007" id="lnk30" data-link-type="association"><path d="M62.169,521.354 C102.213,514.36 177.346,501.236 223.788,493.124" style="stroke:#475569;stroke-width:1;" fill="none"/></g><g class="link" data-entity-1="ent0001" data-entity-2="ent0008" id="lnk31" data-link-type="association"><path d="M62.136,528.107 C125.826,532.819 285.144,544.604 359.982,550.14" style="stroke:#475569;stroke-width:1;" fill="none"/></g><g class="link" data-entity-1="ent0001" data-entity-2="ent0009" id="lnk32" data-link-type="association"><path d="M40.485,566.216 C50.512,621.163 77.39,713.1 145,713.1 C145,713.1 145,713.1 402,713.1 C412.746,713.1 520.379,627.726 577.619,581.705" style="stroke:#475569;stroke-width:1;" fill="none"/></g><g class="link" data-entity-1="ent0010" data-entity-2="ent0002" id="lnk33" data-link-type="association"><path d="M791.772,346.442 C765.386,327.811 735.157,300.898 720.5,268.1 C702.548,227.929 698.26,207.066 720.5,169.1 C739.194,137.187 779.269,119.323 807.852,110.215" style="stroke:#475569;stroke-width:1;" fill="none"/></g><g class="link" data-entity-1="ent0011" data-entity-2="ent0003" id="lnk34" data-link-type="association"><path d="M449.974,389.523 C458.864,384.535 468.14,379.531 477,375.1 C596.66,315.257 744.674,255.836 807.951,231.093" style="stroke:#475569;stroke-width:1;" fill="none"/></g><g class="link" data-entity-1="ent0012" data-entity-2="ent0004" id="lnk35" data-link-type="association"><path d="M664.579,506.846 C667.284,509.432 669.793,512.184 672,515.1 C688.291,536.62 679.492,548.239 690,573.1 C718.572,640.698 723.289,660.686 769,718.1 C772.337,722.291 775.977,726.432 779.786,730.466" style="stroke:#475569;stroke-width:1;" fill="none"/></g><g class="link" data-entity-1="ent0002" data-entity-2="ent0003" id="lnk37" data-link-type="extension"><polygon points="840,151.7,834,169.7,846,169.7,840,151.7" fill="none" style="stroke:#475569;stroke-width:1;stroke-linejoin:miter;stroke-miterlimit:10;"/><path d="M840,169.7 C840,175.561 840,163.423 840,169.284" style="stroke:#475569;stroke-width:1;" fill="none"/></g><g class="link" data-entity-1="ent0002" data-entity-2="ent0004" id="lnk39" data-link-type="extension"><polygon points="807.852,110.215,788.88,109.963,792.524,121.397,807.852,110.215" fill="none" style="stroke:#475569;stroke-width:1;stroke-linejoin:miter;stroke-miterlimit:10;"/><path d="M790.702,115.68 C762.118,124.787 739.194,137.187 720.5,169.1 C659.846,272.643 661.151,604.804 720.5,709.1 C731.421,728.291 749.801,742.834 768.913,753.6" style="stroke:#475569;stroke-width:1;" fill="none"/></g><g class="link" data-entity-1="ent0006" data-entity-2="ent0010" id="lnk40" data-link-type="dependency"><polygon points="782.837,364.183,774.572,358.827,777.899,363.402,773.323,366.729,782.837,364.183" fill="#475569" style="stroke:#475569;stroke-width:1;stroke-linejoin:miter;stroke-miterlimit:10;"/><path d="M187.03,422.365 C226.286,409.445 288.073,390.566 343,380.1 C486.93,352.675 525.483,358.173 672,359.1 C707.113,359.322 716.031,356.918 751,360.1 C761.341,361.041 767.358,361.736 777.899,363.402" style="stroke:#475569;stroke-width:1;stroke-dasharray:7,7;" fill="none"/><text x="372.5" y="356.88" fill="#000" font-size="13" textLength="57.564" font-family="PingFang SC">«include»</text></g><g class="link" data-entity-1="ent0007" data-entity-2="ent0010" id="lnk41" data-link-type="dependency"><polygon points="782.964,372.365,774.142,367.985,777.968,372.152,773.802,375.978,782.964,372.365" fill="#475569" style="stroke:#475569;stroke-width:1;stroke-linejoin:miter;stroke-miterlimit:10;"/><path d="M306.17,481.18 C354.141,475.037 431.368,464.226 459,455.1 C496.562,442.694 510.393,442.432 538,414.1 C550.762,401.002 540.531,386.853 556,377.1 C574.625,365.357 700.92,368.865 777.968,372.152" style="stroke:#475569;stroke-width:1;stroke-dasharray:7,7;" fill="none"/><text x="479" y="407.88" fill="#000" font-size="13" textLength="57.564" font-family="PingFang SC">«include»</text></g><g class="link" data-entity-1="ent0008" data-entity-2="ent0010" id="lnk42" data-link-type="dependency"><polygon points="782.749,382.392,773.274,379.703,777.799,383.098,774.404,387.623,782.749,382.392" fill="#475569" style="stroke:#475569;stroke-width:1;stroke-linejoin:miter;stroke-miterlimit:10;"/><path d="M442.283,536.965 C471.674,523.6 510.938,502.248 538,474.1 C549.85,461.774 542.439,450.513 556,440.1 C591.036,413.198 705.777,393.373 777.799,383.098" style="stroke:#475569;stroke-width:1;stroke-dasharray:7,7;" fill="none"/><text x="585.5" y="395.88" fill="#000" font-size="13" textLength="57.564" font-family="PingFang SC">«include»</text></g><g class="link" data-entity-1="ent0008" data-entity-2="ent0015" id="lnk43" data-link-type="dependency"><polygon points="1312.825,610.861,1303.288,608.402,1307.894,611.686,1304.609,616.292,1312.825,610.861" fill="#475569" style="stroke:#475569;stroke-width:1;stroke-linejoin:miter;stroke-miterlimit:10;"/><path d="M419.56,582.659 C432.836,602.344 452.874,627.083 477,641.1 C507.902,659.053 520.46,652.335 556,656.1 C650.166,666.077 674.314,659.989 769,661.1 C832.107,661.841 848.023,665.208 911,661.1 C1056.642,651.601 1221.756,626.108 1307.894,611.686" style="stroke:#475569;stroke-width:1;stroke-dasharray:7,7;" fill="none"/><text x="811.5" y="654.88" fill="#000" font-size="13" textLength="57.564" font-family="PingFang SC">«include»</text></g><g class="link" data-entity-1="ent0009" data-entity-2="ent0010" id="lnk44" data-link-type="dependency"><polygon points="816.26,404.024,807.437,408.401,813.069,407.874,813.597,413.506,816.26,404.024" fill="#475569" style="stroke:#475569;stroke-width:1;stroke-linejoin:miter;stroke-miterlimit:10;"/><path d="M670.326,524.522 C696.002,510.087 726.247,491.352 751,471.1 C775.499,451.056 796.33,428.074 813.069,407.874" style="stroke:#475569;stroke-width:1;stroke-dasharray:7,7;" fill="none"/><text x="692" y="464.88" fill="#000" font-size="13" textLength="57.564" font-family="PingFang SC">«include»</text></g><g class="link" data-entity-1="ent0011" data-entity-2="ent0010" id="lnk45" data-link-type="extension"><polygon points="782.718,360.38,765.398,352.633,764.213,364.574,782.718,360.38" fill="none" style="stroke:#475569;stroke-width:1;stroke-linejoin:miter;stroke-miterlimit:10;"/><path d="M451.27,389.467 C481.007,376.89 519.993,363.907 556,358.1 C641.561,344.301 664.422,354.173 751,358.1 C761.268,358.566 754.277,357.559 764.806,358.603" style="stroke:#475569;stroke-width:1;" fill="none"/></g><g class="link" data-entity-1="ent0012" data-entity-2="ent0010" id="lnk46" data-link-type="extension"><polygon points="782.822,402.955,764.008,405.41,769.244,416.208,782.822,402.955" fill="none" style="stroke:#475569;stroke-width:1;stroke-linejoin:miter;stroke-miterlimit:10;"/><path d="M672.129,453.487 C696.526,442.823 725.256,430.063 751,418.1 C761.332,413.299 756.087,415.919 766.626,410.809" style="stroke:#475569;stroke-width:1;" fill="none"/></g><g class="link" data-entity-1="ent0013" data-entity-2="ent0010" id="lnk47" data-link-type="dependency"><polygon points="869.644,403.917,873.732,412.877,873.388,407.231,879.034,406.887,869.644,403.917" fill="#475569" style="stroke:#475569;stroke-width:1;stroke-linejoin:miter;stroke-miterlimit:10;"/><path d="M1023.892,460.413 C992.17,458.349 958.688,453.101 929,442.1 C906.853,433.893 889.417,421.42 873.388,407.231" style="stroke:#475569;stroke-width:1;stroke-dasharray:7,7;" fill="none"/><text x="940.211" y="417.88" fill="#000" font-size="13" textLength="55.237" font-family="PingFang SC">«extend»</text><text x="931" y="436.08" fill="#000" font-size="13" textLength="73.658" font-family="PingFang SC">[仓库已加密]</text></g><g class="link" data-entity-1="ent0014" data-entity-2="ent0008" id="lnk48" data-link-type="dependency"><polygon points="438.946,582.667,443.841,591.213,442.979,585.623,448.569,584.761,438.946,582.667" fill="#475569" style="stroke:#475569;stroke-width:1;stroke-linejoin:miter;stroke-miterlimit:10;"/><path d="M782.893,623.186 C725.214,642.752 633.178,665.199 556,644.1 C512.414,632.185 472.659,607.373 442.979,585.623" style="stroke:#475569;stroke-width:1;stroke-dasharray:7,7;" fill="none"/><text x="586.711" y="619.88" fill="#000" font-size="13" textLength="55.237" font-family="PingFang SC">«extend»</text><text x="558" y="638.08" fill="#000" font-size="13" textLength="112.658" font-family="PingFang SC">[恢复目标存在冲突]</text></g><?plantuml-src ZLLTJzDG6BxlhpWPrqFc-Z4DMG9ZysOAsK0lO35bFMmDfLtQBhYe5nW5meSQ-L3ZKC0H5fH9y0FZWlipQyl-XQSzRTTr3V6kUv_dEUTvdtFEEvLN1GYqsagxUQd_V7LrlAel7MgrpVRlbqRpXxvMCxRhxR_hX03dLA1AGEOBHHLml0ppAY-9X3BFYoLMPXV0B9kVByXIMUGIaY39OB78gz23AqMManPviG3cM47n8W8lGhLIWg0a2HNpXmSJ9Gugi0GeobEKMN7UB98nJv63SsnPK5EIgDvZ5o2OG5kbMBHTDk5XZSYoj8WD3f0CHT6tl61UbUHHIUQWR5EYKJBIi_MK0lEi0dj8DoawcXmD8FaI6KYcKdGgvI5cK8h8ej2x7aqoPCoxtWHQY2t0h5f1PoKx6e8rxOAGVh3HsJj4vwIlNeG0gu2fRCR1yC5gf--qPtKBcxmp2OQ7bOgYmeLut5sY-bMhddbewV74I3g0-03EZetSlv6DWgjMrQYlUoIPvDtnoQHNupe5eJ5MPO6PHxa4z9qpVRE1dHdVcqRpKmWy9W0euzH0Q2eH7Y9dH7t_e7EoWNcuhyJ38T9Ff13HkhTQwulnujWbKduYZOZMrSRxkqJQJsHcHADnOBnURhVsZ9ttnkckiNFaqXaVFOASNZLQdRTsH-tcblPdow57o3vwsk7ZqFtyT9yWumXmv7v1nYz0YRGlM-Pzs5qnz_Yst7bpXBxRpLzNnvyxsqlQsZug-jRnvnL1CMYrvoW6d9gsV6wSBBdqlXXYpe5Xkj7SqZzMNNeCqQtZ0-7f8iznKCnPaoJSRHf_1EEscWf6Cuuw4uXJjfeEH1bRp0IY0RxH41F3xXNpktPHZwqWbEflgRim7T1GL-eu3fAwXkcWTHdYAO660u94oPoXkR3zfWAA52vsiq2k0cWCORTe4z5y8PnCx98rImYd7xk8fmM1vqpO_7S9FubRQdkEzDJm4GmEnkr0RwCnmujveSn1D6TmZjUXz7-YiG2KkKvhzMcwnDVKQRAtulS67wbGvEBn6N4QFqBjuXo_oHo1hwBDHyvyVFjnVMZe-olcxAtMyRlC_GC0?></g></svg>